# xmcd
#
# Track frame offsets: 
#        150
#        11919
#        20873
#        30845
#        45822
#        59651
#        69047
#        79136
#        83032
#        99301
#        117701
#        127058
#        137046
#        157246
#        167253
#        172952
#        183246
#        193760
#        206273
#        215595
#
# Disc length: 3128 seconds
#
# Revision: 2
# Processed by: cddbd v1.5.2PL0 Copyright (c) Steve Scherf et al.
# Submitted via: ExactAudioCopy v0.99pb1
#
DISCID=0d0c3614
DTITLE=Various Artist - Country Legends [CD 8)
DYEAR=2006
DGENRE=Country
TTITLE0=Frankie Lane - Mule Train
TTITLE1=Willie Nelson - Building Heartaches
TTITLE2=Buck Owens - Rhythm And Booze
TTITLE3=Bellamy Brothers - Lovers Live Longer
TTITLE4=Porter Wagoner - Love Paid It All
TTITLE5=Johnny Paycheck - Mr Lovemaker
TTITLE6=Patsy Cline - Three Cigarettes In An Ash Tray
TTITLE7=Charly Pride - San Antone
TTITLE8=Lynn Anderson - The Devil Went Down To Georgia
TTITLE9=George Jones - Bartender Blues
TTITLE10=Marilyn Monroe - One Silver Dollar
TTITLE11=Carl Perkins - Maybelline
TTITLE12=Emmylou Harris - Love Hurts
TTITLE13=Johnny Cash - Rock Island Line
TTITLE14=Tammy Wynette - Singing My Song
TTITLE15=Don Williams - Take My Hand For A While
TTITLE16=Conway Twitty - It's Only Make Believe
TTITLE17=Johnny Paycheck - Georgia In A Jug
TTITLE18=Frankie Lane - Rawhide
TTITLE19=Kenny Rogers - Coward In The Country
EXTD=
EXTT0=
EXTT1=
EXTT2=
EXTT3=
EXTT4=
EXTT5=
EXTT6=
EXTT7=
EXTT8=
EXTT9=
EXTT10=
EXTT11=
EXTT12=
EXTT13=
EXTT14=
EXTT15=
EXTT16=
EXTT17=
EXTT18=
EXTT19=
PLAYORDER=
